<?xml version="1.0" standalone="no"?> <!DOCTYPE svg PUBLIC "-//W3C//DTD SVG 20010904//EN" "http://www.w3.org/TR/2001/REC-SVG-20010904/DTD/svg10.dtd"> <svg version="1.0" xmlns="http://www.w3.org/2000/svg" width="481.000000pt" height="104.000000pt" viewBox="0 0 481.000000 104.000000" preserveAspectRatio="xMidYMid meet"> <g transform="translate(0.000000,104.000000) scale(0.100000,-0.100000)" fill="#ffffff" stroke="none"> <path d="M1618 953 c-50 -3 -58 -7 -58 -23 0 -14 7 -20 24 -20 32 0 64 -29 67 -60 0 -14 1 -163 0 -332 l-1 -308 -25 -6 c-40 -10 -96 5 -124 34 -18 18 -69 133 -156 350 l-128 322 -52 0 c-47 0 -53 -3 -64 -27 -7 -16 -65 -154 -128 -308 -63 -154 -122 -293 -130 -308 -16 -32 -68 -67 -100 -67 -16 0 -23 -6 -23 -20 0 -19 7 -20 150 -20 141 0 150 1 150 19 0 15 -10 21 -39 26 -22 3 -47 15 -57 26 -16 18 -16 22 12 97 l29 77 129 0 129 0 35 -88 c40 -98 40 -101 -30 -112 -29 -5 -38 -12 -38 -26 0 -18 12 -19 355 -19 314 0 355 2 355 16 0 8 -14 20 -30 26 -40 13 -50 35 -50 105 0 56 11 83 35 83 5 0 44 -52 85 -115 l74 -115 278 0 c261 0 278 1 278 18 0 12 -11 21 -32 27 l-33 10 -3 76 c-2 60 1 79 13 89 14 12 20 10 40 -16 13 -16 48 -68 77 -116 l53 -87 123 -1 c113 0 122 1 122 19 0 12 -9 20 -29 24 -39 8 -49 20 -152 173 l-89 133 42 36 c38 32 111 72 161 89 9 3 17 12 17 21 0 13 -20 15 -130 15 -109 0 -130 -2 -130 -15 0 -8 4 -15 9 -15 5 0 22 -5 36 -10 l27 -10 -19 -28 c-10 -16 -53 -61 -95 -101 l-78 -74 0 272 0 271 -52 0 c-29 0 -90 -3 -135 -7 -72 -5 -83 -8 -83 -24 0 -13 7 -19 24 -19 13 0 34 -9 47 -19 l24 -19 3 -316 c2 -212 -1 -322 -8 -336 -8 -16 -21 -20 -58 -20 -26 0 -57 6 -68 14 -32 23 -207 285 -200 302 7 19 112 86 170 108 25 10 46 24 46 32 0 11 -24 14 -130 14 -99 0 -130 -3 -130 -13 0 -7 14 -18 30 -24 17 -6 30 -18 30 -26 0 -16 -165 -177 -181 -177 -5 0 -9 108 -9 265 l0 265 -72 -2 c-40 -1 -99 -3 -130 -5z m-521 -491 c-55 -1 -101 -1 -104 1 -2 3 15 51 38 108 22 57 46 115 51 129 9 23 15 12 62 -105 l52 -130 -99 -3z"/> <path d="M80 941 c0 -9 91 -96 135 -127 17 -12 28 -24 25 -26 -3 -2 -32 -25 -66 -50 -81 -62 -135 -141 -142 -208 -6 -63 27 -136 91 -198 l45 -44 36 24 c20 12 36 26 36 30 0 4 -14 17 -31 29 -52 37 -89 97 -89 143 0 74 46 120 274 276 85 59 176 136 176 151 0 5 -23 9 -50 9 -45 0 -58 -5 -116 -50 -36 -27 -70 -50 -76 -50 -5 0 -41 23 -79 50 -61 44 -74 50 -119 50 -27 0 -50 -4 -50 -9z"/> <path d="M458 713 l-38 -25 27 -21 c39 -31 83 -107 83 -143 0 -78 -50 -134 -226 -251 -118 -79 -224 -166 -224 -184 0 -5 25 -9 55 -9 51 0 60 4 120 51 l65 51 28 -17 c15 -10 46 -33 69 -51 36 -30 49 -34 98 -34 l57 0 -24 28 c-13 16 -49 49 -80 73 -31 24 -57 47 -57 51 -1 3 21 22 48 42 57 42 113 102 135 144 44 86 24 191 -52 271 l-47 50 -37 -26z"/> <path d="M323 680 c37 -5 76 -19 110 -39 l52 -31 -33 28 c-38 34 -93 53 -148 51 -32 -1 -29 -3 19 -9z"/> <path d="M4004 676 c-17 -8 -47 -28 -67 -46 l-37 -32 0 42 0 43 -82 -6 c-46 -4 -102 -7 -125 -7 -35 0 -43 -3 -43 -19 0 -13 9 -20 30 -24 51 -11 60 -45 60 -224 0 -174 -8 -203 -56 -203 -17 0 -24 -5 -24 -20 0 -19 7 -20 170 -20 163 0 170 1 170 20 0 14 -7 20 -23 20 -12 0 -33 7 -45 16 -21 15 -22 21 -22 178 0 178 1 182 63 205 26 10 27 9 27 -23 0 -48 8 -65 41 -81 40 -21 63 -19 98 11 27 22 31 32 31 72 -1 90 -78 136 -166 98z"/> <path d="M4431 680 c-126 -27 -211 -132 -211 -264 0 -99 34 -169 105 -217 55 -37 106 -51 191 -51 89 1 164 33 219 93 34 38 35 42 18 54 -16 12 -23 9 -59 -25 -50 -46 -103 -63 -157 -51 -78 18 -113 62 -126 158 l-8 53 174 0 c199 0 193 -3 174 86 -15 66 -58 119 -116 145 -50 22 -146 31 -204 19z m99 -40 c23 -12 40 -61 40 -116 l0 -44 -84 0 -84 0 5 43 c6 48 36 113 55 120 21 9 48 8 68 -3z"/> <path d="M2993 673 c-65 -3 -73 -6 -73 -23 0 -13 7 -20 18 -20 10 0 28 -10 39 -22 19 -21 21 -37 25 -188 3 -185 13 -216 77 -254 66 -38 192 -18 254 41 l27 27 0 -37 c0 -37 0 -37 43 -37 102 0 207 13 207 26 0 7 -10 16 -22 20 -58 17 -58 19 -58 256 l0 219 -117 -6 c-65 -4 -124 -8 -130 -10 -23 -7 -14 -35 10 -35 12 0 33 -7 45 -16 21 -15 22 -21 22 -173 0 -152 -1 -158 -23 -179 -34 -32 -84 -44 -116 -29 -41 20 -50 64 -50 265 l-1 182 -52 -2 c-29 -1 -86 -4 -125 -5z"/> <path d="M245 660 c-12 -5 4 -6 40 -3 33 3 62 7 64 9 9 8 -85 2 -104 -6z"/> <path d="M370 650 c8 -5 20 -10 25 -10 6 0 3 5 -5 10 -8 5 -19 10 -25 10 -5 0 -3 -5 5 -10z"/> <path d="M320 641 c43 -9 70 -23 94 -50 15 -16 21 -18 27 -9 6 9 13 1 23 -22 8 -19 15 -29 16 -22 0 20 -26 67 -47 82 -15 12 -16 12 -5 0 21 -24 13 -34 -10 -12 -28 26 -71 42 -106 41 -23 -1 -22 -2 8 -8z"/> <path d="M171 608 c-17 -17 -31 -39 -30 -47 0 -13 2 -12 12 3 7 10 20 28 30 40 14 16 13 13 -3 -14 -11 -19 -19 -51 -19 -70 1 -34 2 -34 8 7 4 24 18 54 31 68 13 14 18 25 11 25 -7 0 -9 5 -6 10 12 19 -3 10 -34 -22z"/> <path d="M260 619 c-30 -12 -60 -38 -60 -52 0 -6 13 1 28 16 15 15 32 27 36 27 5 0 -3 -9 -18 -21 -14 -11 -26 -25 -26 -31 0 -5 14 2 31 16 35 30 65 33 97 10 13 -9 26 -14 29 -11 7 8 -52 37 -79 38 -19 1 -18 3 7 9 27 7 28 8 5 8 -14 0 -36 -4 -50 -9z"/> <path d="M340 616 c0 -2 7 -7 16 -10 8 -3 12 -2 9 4 -6 10 -25 14 -25 6z"/> <path d="M485 584 c4 -10 11 -39 14 -64 5 -33 8 -40 14 -26 9 21 -8 92 -25 102 -8 5 -9 2 -3 -12z"/> <path d="M263 558 c-9 -10 -11 -18 -5 -18 6 0 13 6 15 13 3 6 3 -1 1 -18 -6 -34 25 -88 66 -114 19 -12 16 -6 -13 27 -30 34 -38 50 -35 75 4 37 21 43 26 8 3 -17 0 -21 -10 -16 -10 6 -10 5 -1 -5 6 -7 16 -9 22 -6 15 9 14 39 -1 54 -7 7 -8 12 -2 12 6 0 16 -10 22 -22 8 -18 11 -19 11 -6 2 35 -68 46 -96 16z"/> <path d="M398 569 c6 -7 12 -29 12 -48 0 -26 3 -32 12 -23 15 15 -1 74 -22 80 -12 4 -13 2 -2 -9z"/> <path d="M388 525 c2 -14 -3 -36 -12 -50 -9 -14 -13 -25 -8 -25 12 0 32 46 32 75 0 14 -4 25 -9 25 -4 0 -6 -11 -3 -25z"/> <path d="M438 512 c-2 -23 0 -42 4 -42 13 0 20 48 10 66 -8 14 -10 9 -14 -24z"/> <path d="M131 516 c-1 -30 36 -106 52 -106 4 0 -1 13 -12 29 -12 16 -21 37 -22 48 0 10 -4 27 -9 38 -8 17 -9 16 -9 -9z"/> <path d="M190 512 c0 -30 17 -62 44 -84 11 -10 16 -18 10 -18 -7 0 -26 16 -43 35 -32 37 -42 35 -15 -3 15 -22 82 -63 70 -43 -4 6 0 11 11 11 13 0 8 6 -14 20 -18 11 -33 21 -33 22 0 2 -7 21 -15 43 -10 29 -14 34 -15 17z"/> <path d="M221 505 c0 -11 4 -27 9 -35 9 -13 10 -13 9 0 0 8 -4 24 -9 35 l-9 20 0 -20z"/> <path d="M250 497 c0 -14 5 -29 10 -32 7 -4 8 3 4 22 -9 38 -14 42 -14 10z"/> <path d="M351 496 c-6 -16 -10 -31 -7 -33 7 -8 28 37 23 50 -3 7 -10 -1 -16 -17z"/> <path d="M470 496 c0 -8 -3 -23 -6 -33 -5 -12 -4 -15 3 -8 16 15 26 55 14 55 -6 0 -11 -6 -11 -14z"/> <path d="M477 444 c-9 -13 -24 -21 -31 -18 -8 3 -17 0 -22 -7 -5 -9 -2 -10 9 -6 10 4 17 1 17 -6 0 -6 12 0 26 15 15 14 25 30 23 36 -2 6 -12 -1 -22 -14z"/> <path d="M384 438 c-4 -7 -3 -8 4 -4 7 4 12 9 12 12 0 8 -9 4 -16 -8z"/> <path d="M409 433 c-13 -16 -12 -17 4 -4 16 13 21 21 13 21 -2 0 -10 -8 -17 -17z"/> <path d="M290 425 c14 -17 80 -59 84 -54 2 2 -19 19 -47 37 -27 18 -44 26 -37 17z"/> <path d="M413 383 c4 -3 10 -3 14 0 3 4 0 7 -7 7 -7 0 -10 -3 -7 -7z"/> </g> </svg>