<?xml version="1.0" standalone="no"?> <!DOCTYPE svg PUBLIC "-//W3C//DTD SVG 20010904//EN" "http://www.w3.org/TR/2001/REC-SVG-20010904/DTD/svg10.dtd"> <svg version="1.0" xmlns="http://www.w3.org/2000/svg" width="600.000000pt" height="171.000000pt" viewBox="0 0 600.000000 171.000000" preserveAspectRatio="xMidYMid meet"> <g transform="translate(0.000000,171.000000) scale(0.100000,-0.100000)" fill="#ffffff" stroke="none"> <path d="M595 1691 c-3 -11 -75 -161 -159 -333 -315 -642 -415 -850 -421 -869 -6 -18 -1 -19 112 -19 l118 0 44 95 44 95 274 0 c216 0 274 3 270 13 -3 6 -17 42 -32 80 l-27 67 -205 0 c-113 0 -203 4 -201 8 20 52 274 592 278 592 3 0 104 -214 225 -475 l220 -475 117 0 c65 0 118 2 118 4 0 9 -62 140 -229 481 -99 204 -223 456 -273 562 l-93 192 -87 1 c-77 0 -87 -2 -93 -19z"/> <path d="M1165 1689 c4 -11 86 -183 184 -382 97 -199 228 -469 291 -599 l115 -238 86 0 86 0 185 383 c102 210 238 489 302 620 l115 238 -122 -3 -121 -3 -220 -482 c-121 -266 -222 -483 -225 -483 -3 0 -105 218 -226 485 l-220 485 -118 0 c-115 0 -118 -1 -112 -21z"/> <path d="M2778 1443 c-290 -595 -333 -684 -399 -821 -38 -79 -69 -145 -69 -148 0 -2 53 -4 119 -4 l118 0 44 95 43 95 273 0 c150 0 273 3 273 6 0 3 -14 39 -31 79 l-31 75 -203 2 -203 3 137 297 c75 164 138 298 141 298 3 0 105 -214 225 -475 l220 -474 122 -1 122 0 -165 338 c-91 185 -227 464 -302 620 l-136 282 -84 0 -83 0 -131 -267z"/> <path d="M3483 1697 c3 -8 125 -284 271 -614 146 -331 266 -608 266 -617 0 -8 -9 -32 -21 -53 -17 -29 -193 -375 -207 -405 -2 -5 48 -8 111 -8 l114 0 40 83 c116 236 519 1060 647 1321 80 164 146 301 146 303 0 2 -54 2 -120 1 l-121 -3 -53 -115 c-30 -63 -131 -281 -226 -485 -94 -203 -175 -374 -179 -378 -5 -5 -104 215 -221 487 l-212 496 -120 0 c-96 0 -119 -3 -115 -13z"/> <path d="M5211 1678 c-8 -18 -131 -271 -274 -563 -267 -547 -307 -630 -307 -639 0 -3 53 -6 119 -6 l118 0 43 95 43 95 275 0 c215 0 273 3 269 13 -3 6 -17 42 -32 79 l-27 68 -203 2 -204 3 137 297 c75 164 139 298 142 298 3 0 104 -214 225 -475 l220 -475 118 0 c112 0 118 1 112 19 -3 11 -126 266 -274 568 -147 301 -278 572 -291 601 l-24 52 -85 0 -86 0 -14 -32z"/> </g> </svg>