<?xml version="1.0" standalone="no"?> <!DOCTYPE svg PUBLIC "-//W3C//DTD SVG 20010904//EN" "http://www.w3.org/TR/2001/REC-SVG-20010904/DTD/svg10.dtd"> <svg version="1.0" xmlns="http://www.w3.org/2000/svg" width="600.000000pt" height="169.000000pt" viewBox="0 0 600.000000 169.000000" preserveAspectRatio="xMidYMid meet"> <g transform="translate(0.000000,169.000000) scale(0.066667,-0.066667)" fill="#ffffff" stroke="none"> <path d="M878 2452 c-102 -22 -314 -114 -375 -162 -30 -23 -30 -24 16 -70 l46 -47 96 53 c275 150 593 150 868 0 l96 -53 46 47 c46 46 46 47 17 70 -192 146 -553 218 -810 162z"/> <path d="M845 2228 c-60 -20 -145 -61 -191 -90 -102 -66 -92 -67 -169 18 l-65 72 -84 -90 c-325 -351 -345 -922 -44 -1313 98 -127 118 -135 185 -73 30 28 63 59 74 69 16 14 35 8 92 -34 265 -190 672 -184 932 14 l53 40 72 -75 c85 -90 98 -87 188 33 311 417 296 978 -35 1339 l-83 90 -65 -72 c-76 -84 -78 -84 -157 -26 -183 132 -486 174 -703 98z m478 -134 c109 -39 193 -91 190 -119 -1 -10 -96 -108 -210 -220 l-208 -202 -210 210 c-226 225 -225 223 -150 274 141 95 406 121 588 57z m-617 -347 c152 -153 278 -283 280 -289 2 -6 -124 -139 -282 -296 l-285 -284 -29 37 c-187 240 -233 607 -111 883 42 94 124 227 140 227 6 0 135 -125 287 -278z m1120 207 c211 -312 200 -747 -26 -1039 l-29 -37 -285 284 c-158 157 -284 290 -282 296 5 16 555 567 565 567 5 0 30 -32 57 -71z m-513 -815 l210 -211 -45 -36 c-158 -129 -503 -148 -704 -40 -131 71 -138 48 100 285 117 117 217 213 221 213 4 0 102 -95 218 -211z"/> <path d="M385 1856 c-133 -229 -133 -574 -1 -802 44 -75 48 -77 100 -23 l39 42 -44 91 c-92 193 -85 433 20 620 l28 51 -45 43 c-57 53 -54 54 -97 -22z"/> <path d="M1704 1877 c-40 -42 -40 -46 -18 -80 112 -171 112 -509 0 -679 -26 -40 -25 -41 22 -88 l48 -47 27 34 c141 186 161 559 43 797 -58 115 -67 120 -122 63z"/> <path d="M2643 1671 c-88 -44 -142 -105 -175 -200 -123 -348 297 -645 577 -408 l53 45 -41 41 -40 41 -59 -39 c-86 -57 -151 -65 -232 -29 -231 102 -169 468 79 468 64 0 99 -12 176 -61 51 -32 121 52 81 97 -79 90 -285 112 -419 45z"/> <path d="M3216 1696 c-3 -3 -6 -163 -6 -356 l0 -350 68 0 67 0 0 128 0 127 74 0 74 0 87 -127 88 -127 71 -1 c84 0 86 6 21 92 -27 36 -68 90 -90 120 l-41 55 53 31 c150 88 149 292 -1 380 -43 25 -443 50 -465 28z m414 -143 c41 -38 41 -129 -2 -167 -24 -22 -59 -30 -157 -34 l-126 -5 0 123 0 124 127 -7 c96 -5 135 -13 158 -34z"/> <path d="M4141 1686 c-321 -139 -296 -593 38 -690 344 -100 608 300 389 588 -84 109 -295 160 -427 102z m254 -124 c115 -62 155 -250 77 -360 -132 -185 -422 -89 -422 139 0 196 179 310 345 221z"/> <path d="M4898 1686 c-207 -108 -153 -327 96 -388 163 -40 221 -103 152 -164 -52 -48 -134 -46 -233 4 l-90 46 -34 -32 c-113 -107 226 -221 397 -134 206 105 125 334 -138 392 -106 23 -143 51 -143 106 0 87 123 105 253 37 l51 -26 35 43 35 43 -39 31 c-79 66 -256 87 -342 42z"/> <path d="M5535 1684 c-204 -103 -147 -314 104 -387 150 -44 169 -58 163 -118 -9 -92 -159 -109 -274 -31 -66 45 -64 45 -99 3 -39 -47 -36 -64 20 -98 226 -136 484 -61 484 142 0 110 -59 168 -211 207 -138 36 -172 58 -172 112 0 87 122 111 238 45 l64 -36 29 37 c43 57 36 73 -50 113 -96 45 -219 49 -296 11z"/> <path d="M6263 1682 c-318 -145 -267 -621 73 -692 239 -49 444 117 444 362 0 264 -277 440 -517 330z m279 -126 c190 -127 105 -452 -119 -452 -236 0 -330 316 -134 452 67 47 183 47 253 0z"/> <path d="M6875 1684 c4 -15 71 -177 147 -360 l140 -334 57 0 c45 0 60 7 71 34 92 216 270 659 270 671 0 22 -114 19 -131 -4 -8 -10 -57 -132 -109 -270 -52 -139 -99 -247 -105 -240 -6 6 -43 99 -82 207 -126 339 -116 322 -197 322 -59 0 -68 -4 -61 -26z"/> <path d="M7686 1696 c-3 -3 -6 -164 -6 -356 l0 -351 266 4 267 5 0 52 0 53 -207 4 -206 4 0 89 0 90 180 0 180 0 0 60 0 60 -181 0 -180 0 4 86 5 87 198 4 199 4 0 58 0 58 -256 -2 c-141 -2 -259 -5 -263 -9z"/> <path d="M8361 1696 c-3 -3 -6 -164 -6 -357 l0 -351 64 5 64 5 -6 123 -5 124 80 0 81 -1 87 -127 87 -127 74 0 c91 0 92 -7 -16 135 -105 137 -104 136 -44 163 140 62 141 304 2 375 -51 27 -441 54 -462 33z m376 -128 c56 -23 78 -71 62 -135 -14 -57 -81 -83 -211 -83 l-113 0 0 120 0 120 105 0 c58 0 129 -10 157 -22z"/> <path d="M517 689 c-53 -56 -48 -62 121 -143 290 -139 624 -139 915 0 169 81 174 88 118 144 l-46 47 -97 -53 c-267 -147 -598 -147 -864 -1 -114 62 -94 61 -147 6z"/> <path d="M705 437 c0 -5 88 -98 195 -205 l195 -194 206 208 c114 114 193 203 177 197 -206 -78 -513 -90 -687 -27 -47 18 -86 27 -86 21z"/> </g> </svg>