<svg version="1.2" xmlns="http://www.w3.org/2000/svg" viewBox="0 0 1569 743" width="1569" height="743">
	<style>
		.s0 { fill: #ffffff } 
	</style>
	<g>
		<path class="s0" d="m366 8c-23.4 1.7-51.6 6.3-67 11-5.2 1.6-11.1 3.2-13 3.6-1.9 0.3-4.4 1-5.5 1.4-1.1 0.5-3.6 1.4-5.5 1.9-5.2 1.5-15.8 5.5-21.5 8-2.7 1.3-8.4 3.6-12.5 5.3-15.1 6-47.9 24.1-58.1 32-2 1.5-4 2.8-4.4 2.8-0.4 0-2.2 1.2-4 2.7-1.8 1.6-6.2 5-9.9 7.8-17 12.6-44.5 38.9-58.2 55.5-9.4 11.4-17.4 21.8-17.4 22.6 0 0.4-1.6 2.6-3.5 5-1.9 2.3-3.5 4.6-3.5 5 0 0.4-1 2.1-2.3 3.8-7 9.3-27.8 48.3-30.2 56.6-0.4 1.4-1.8 4.8-3.1 7.7-1.3 2.8-2.4 5.8-2.4 6.5 0 0.8-0.4 1.8-0.8 2.4-1.3 1.4-9.9 29.7-11.4 37.1-0.4 2.4-1.2 6.2-1.7 8.5-3.2 15-6.2 36.1-7.2 50.5-1.3 18.3-0.6 56.8 1.2 68.8 0.5 3.8 1.4 10.1 1.9 14 0.9 7 4.2 23.8 5.9 30.5 1.5 5.6 6.1 21.2 7.2 24.5 0.6 1.6 1.6 5 2.4 7.5 1.8 6.4 3.4 10.7 6.5 17.5 1.5 3.3 4 8.9 5.5 12.5 5.7 13.5 16.6 34.2 22.8 43.6 2.3 3.4 6.5 9.8 9.2 14.1 2.8 4.3 5.7 8.5 6.5 9.4 0.8 0.9 3.1 3.7 5 6.3 7.6 10.2 26.2 31.5 28.3 32.1 0.9 0.4 1.7 1 1.7 1.4 0 0.8 13.4 14.2 20 20 7.2 6.2 16.9 14.1 17.4 14.1 0.4 0 3.1 2 6.1 4.4 3 2.5 7.4 5.6 9.9 7.1 2.4 1.4 4.7 3.2 5 4 0.3 0.8 1.2 1.5 2.1 1.5 0.8 0 4.1 1.7 7.3 3.9 3.1 2.1 7.5 4.8 9.7 6 2.2 1.2 6.3 3.5 9 5.2 2.8 1.6 5.7 3.2 6.5 3.5 0.8 0.3 3.2 1.4 5.2 2.4 2 1.1 4.3 2 5.1 2 0.8 0 2.2 0.9 3.2 2 1 1.1 2.3 2 3 2 0.9 0 10 3.6 20 8 14.8 6.5 59.2 17.9 77.8 20 4.6 0.6 11.3 1.5 14.8 2.1 4.5 0.8 55.6 1.3 175.2 1.6 188.6 0.5 179.1 0.8 193.4-6.4 4-2 8.3-4.6 9.5-5.7 1.2-1.2 3.7-3.3 5.5-4.7 3.9-3.1 9.1-10.4 13.2-18.6 6.3-12.5 6.1-6.3 6.1-180.8 0-92.8-0.4-159.2-0.9-160.3-0.5-0.9-1.4-3.6-2-5.9-2.3-8.7-7.4-17.6-13.4-23.6-6.9-6.9-17.3-14.7-19.5-14.7-0.8 0-2.3-0.6-3.1-1.3-0.9-0.8-5.6-2.1-10.6-3-8-1.5-19.1-1.7-102-1.6-51.1 0-95.2 0.4-98 0.9-10.2 1.8-13.3 2.8-21.1 6.6-6.1 3-9.8 5.8-16.4 12.4-7.3 7.3-9 9.8-12.2 17-14.8 34.3 2.8 71.9 39.2 83.3 6.2 1.9 9.4 2 67.5 2.4 67.3 0.4 63.3 0 67.6 7l2.4 3.8 0.3 79 0.2 79-2.2 4.5c-1.7 3.3-3.5 5.1-6.8 6.7l-4.4 2.3h-117.6c-119.3-0.1-128-0.3-150.5-3.9-10.8-1.8-31.7-7.1-35.2-8.9-1.2-0.7-3.1-1.2-4.2-1.2-1 0-3.2-0.6-4.8-1.4-1.5-0.8-6.8-3.1-11.8-5.2-10.1-4.3-27.2-12.9-29.6-15-0.8-0.8-1.9-1.4-2.4-1.4-1.6 0-21.8-14.4-29.9-21.3-9.2-7.8-25.2-24.3-32.9-33.8-4.2-5.2-8.5-10.4-9.7-11.7-1.1-1.2-2-2.6-2-3 0-0.4-2.3-4.1-5.1-8.2-5.7-8.5-19.9-36.7-19.9-39.5 0-1-0.6-2.6-1.3-3.4-1.9-2.3-9.2-26.9-11.6-39.1-6.2-32.2-5.3-76 2.3-103.5 0.8-2.8 1.9-7 2.6-9.5 2.5-9.8 4.1-14.5 6-18.5 1.1-2.3 2-4.6 2-5.2 0-2 15.2-32.5 17.6-35.4 0.8-0.8 1.4-1.8 1.4-2.2 0-0.3 2.1-3.6 4.8-7.2 2.6-3.7 5.4-7.7 6.3-9 3.7-5.8 18.4-22.7 26.1-30 12.4-12 27.3-24.1 37-30 1.8-1.1 4.8-3 6.8-4.2 1.9-1.2 5.3-3.1 7.5-4.2 2.2-1.1 5.1-2.7 6.5-3.5 3.8-2.2 21.9-10.6 23-10.6 0.5 0 2.9-0.9 5.2-1.9 9.3-4.2 26.2-8.6 46.8-12.3l12.5-2.2 169.5-0.6c153.6-0.6 170-0.8 174.9-2.3 2.9-0.9 5.8-2.1 6.5-2.6 0.6-0.4 2.1-1.2 3.4-1.6 4.6-1.4 14.8-9.2 19.7-15.2 7.7-9.4 8.8-11.2 12-20.3 2.6-7.7 2.9-9.6 2.8-20-0.2-12.9-1.5-18-6.9-27.5-7.2-12.4-14.3-19.5-25.6-25.5-13-6.9 0.9-6.4-179.3-6.6-89.6-0.1-167.7 0.2-173.5 0.6z"/>
		<path class="s0" d="m864 7.9c-10.4 1.1-25.5 8.5-32.9 16.1-4.6 4.7-9.3 11.4-12.9 18.7-6.6 12.9-6.2-7.9-6.2 330.3 0 282.2 0.1 307.2 1.7 315.5 0.9 4.9 2.2 9.7 3 10.6 0.7 0.8 1.3 2.1 1.3 2.8 0 2.3 8.9 15 13.7 19.7 3.1 2.9 8.8 6.5 16 10.1l11.2 5.5 12.8 0.1c11.8 0.1 13.4-0.1 19.8-2.7 3.9-1.5 7.9-3 9-3.3 1.1-0.3 4.3-2.5 7-4.8 2.8-2.3 5.5-4.4 6.1-4.6 3-1 15.4-18.9 15.4-22.1 0-0.8 0.4-1.8 0.9-2.4 0.5-0.5 1.6-4.1 2.5-8.1 1.4-6.5 1.6-28.8 1.6-227.5 0-207.7 0.1-220.5 1.8-223.8 1-2 3.2-4.2 5.2-5.2 7.5-3.7 1.7-9 119.2 108.7 59.6 59.6 109 109.2 109.9 110.2 0.9 1 4.5 4.6 8 8 3.5 3.4 64.2 64.1 134.9 134.8 76.9 77.1 130.7 130.2 134 132.4 3 2 7.1 4.4 9 5.3 16.2 7.8 39.7 6.7 55.1-2.5 12.6-7.5 18.8-14.2 25.4-27.7 5.7-11.6 5.5 4.8 5.5-330.5 0-179.8-0.4-311.6-0.9-315.3-2.9-19.9-21.7-40.5-42.6-46.7-9.1-2.7-25.9-2.6-35 0.2-11.7 3.7-24 13-31.4 23.7-4.7 6.7-9.8 18.6-10.5 24.1-0.4 2.7-0.6 104.6-0.6 226.2v221.3l-3.5 3.9c-4 4.4-7.8 5.4-12.6 3.4-1.9-0.8-101.2-99.4-247.3-245.6-134.2-134.4-246.3-246.1-249.1-248.4-2.7-2.2-5.9-4.3-7-4.6-1.1-0.3-5.1-1.7-8.9-3.2-7.6-2.9-17.7-3.8-28.6-2.6z"/>
	</g>
</svg>