<?xml version="1.0" standalone="no"?> <!DOCTYPE svg PUBLIC "-//W3C//DTD SVG 20010904//EN" "http://www.w3.org/TR/2001/REC-SVG-20010904/DTD/svg10.dtd"> <svg version="1.0" xmlns="http://www.w3.org/2000/svg" width="600.000000pt" height="104.000000pt" viewBox="0 0 600.000000 104.000000" preserveAspectRatio="xMidYMid meet"> <g transform="translate(0.000000,104.000000) scale(0.066667,-0.066667)" fill="#ffffff" stroke="none"> <path d="M1905 1221 c-302 -109 -399 -473 -188 -708 133 -147 342 -186 571 -106 l105 37 0 187 0 187 -154 4 -154 4 0 -68 0 -68 75 0 75 0 0 -81 c0 -97 -44 -123 -188 -111 -320 27 -360 513 -48 598 84 23 220 -1 298 -53 l58 -38 0 83 0 84 -70 31 c-96 42 -288 51 -380 18z"/> <path d="M3748 1224 c-406 -145 -392 -711 21 -836 460 -140 796 434 438 749 -114 101 -314 139 -459 87z m295 -151 c162 -95 176 -408 25 -516 -234 -166 -504 66 -422 361 47 169 243 245 397 155z"/> <path d="M5902 1230 c-253 -78 -203 -388 77 -473 154 -47 202 -98 171 -180 -37 -96 -203 -99 -337 -7 l-65 44 -17 -70 c-53 -207 462 -234 559 -29 81 170 -7 319 -229 385 -129 38 -166 65 -166 120 0 88 137 119 268 60 85 -39 83 -40 102 30 l16 59 -69 34 c-77 37 -233 51 -310 27z"/> <path d="M2625 811 l0 -421 90 0 90 0 0 165 0 165 52 0 c51 0 58 -7 162 -165 l109 -164 93 -1 c115 0 118 -17 -27 182 -67 91 -119 167 -116 169 2 1 24 12 47 24 150 76 153 319 5 418 -57 38 -71 40 -283 45 l-222 5 0 -422z m416 247 c91 -106 13 -218 -153 -218 l-83 0 0 137 0 137 101 -8 c85 -7 106 -14 135 -48z"/> <path d="M4447 1204 c6 -15 72 -204 146 -420 l136 -394 65 0 c62 0 66 2 81 56 8 31 48 158 88 281 l73 225 84 -265 c47 -145 85 -272 85 -281 0 -9 29 -16 71 -15 l72 0 132 393 c73 217 136 405 141 420 6 23 -4 26 -76 26 -80 0 -83 -1 -98 -49 -83 -262 -152 -497 -152 -515 0 -58 -27 -6 -65 125 -23 81 -62 213 -87 294 l-46 147 -61 -5 -62 -4 -72 -240 c-40 -132 -79 -267 -89 -300 l-16 -60 -49 165 c-27 90 -68 227 -91 303 l-42 139 -89 0 c-79 0 -88 -3 -79 -26z"/> <path d="M6510 963 c0 -453 93 -596 383 -595 292 2 372 121 379 558 l5 304 -82 0 -83 0 -5 -289 c-6 -354 -28 -405 -189 -427 -180 -24 -228 68 -228 438 l0 278 -90 0 -90 0 0 -267z"/> <path d="M7515 811 l0 -421 90 0 89 0 -9 165 -10 165 61 0 c60 0 60 0 169 -165 l109 -165 96 0 c74 0 94 5 85 19 -6 10 -60 87 -120 171 -129 179 -122 157 -58 191 152 82 143 338 -15 420 -50 27 -92 32 -273 37 l-214 5 0 -422z m410 256 c95 -96 20 -215 -140 -224 l-105 -6 0 126 c0 70 5 132 11 139 24 24 201 -3 234 -35z"/> <path d="M8371 810 l0 -420 89 0 90 0 0 189 0 189 146 -5 147 -5 0 67 0 68 -147 -5 -146 -5 0 106 0 106 180 0 180 0 0 68 0 67 -270 0 -269 0 0 -420z"/> <path d="M851 1126 c-180 -77 -349 -205 -609 -458 l-245 -240 568 -8 c637 -8 614 -10 527 36 -148 78 -178 259 -82 503 87 220 51 257 -159 167z"/> </g> </svg>