<?xml version="1.0" standalone="no"?> <!DOCTYPE svg PUBLIC "-//W3C//DTD SVG 20010904//EN" "http://www.w3.org/TR/2001/REC-SVG-20010904/DTD/svg10.dtd"> <svg version="1.0" xmlns="http://www.w3.org/2000/svg" width="478.000000pt" height="105.000000pt" viewBox="0 0 478.000000 105.000000" preserveAspectRatio="xMidYMid meet"> <g transform="translate(0.000000,105.000000) scale(0.100000,-0.100000)" fill="#ffffff" stroke="none"> <path d="M475 1044 c-205 -28 -371 -157 -445 -349 -34 -87 -34 -253 0 -340 84 -218 271 -348 499 -347 319 0 561 283 511 597 -30 194 -192 377 -375 423 -50 13 -150 21 -190 16z m168 -79 c182 -47 319 -196 349 -378 44 -266 -182 -528 -456 -527 -138 0 -255 49 -345 145 -146 154 -166 385 -50 566 104 162 313 243 502 194z"/> <path d="M440 831 c-86 -27 -176 -105 -210 -184 -72 -166 14 -363 188 -430 66 -26 175 -22 239 7 75 35 136 96 168 167 24 55 27 71 23 143 -3 66 -10 91 -33 135 -59 107 -168 172 -288 170 -34 0 -73 -4 -87 -8z"/> <path d="M1385 810 c-5 -7 -9 -512 -5 -631 0 -23 37 -31 55 -12 12 11 15 42 15 136 l0 121 33 -31 c53 -51 92 -66 159 -61 192 14 275 280 130 421 -38 37 -105 67 -151 67 -35 -1 -110 -35 -143 -67 l-28 -27 0 35 c0 19 -5 40 -12 47 -15 15 -45 16 -53 2z m311 -80 c90 -56 107 -200 34 -284 -39 -44 -79 -60 -136 -53 -84 9 -135 66 -142 157 -6 78 1 103 44 150 57 63 128 74 200 30z"/> <path d="M2052 795 c-214 -109 -147 -465 88 -465 58 0 100 18 148 63 l32 31 0 -35 c0 -48 12 -63 44 -55 l26 6 -2 238 -3 237 -30 0 c-28 0 -30 -2 -35 -48 l-5 -47 -29 30 c-65 70 -152 86 -234 45z m164 -54 c107 -49 140 -198 62 -287 -73 -83 -162 -88 -236 -14 -74 73 -65 221 16 278 63 46 97 50 158 23z"/> <path d="M2470 805 c-9 -11 6 -54 83 -222 l94 -207 -40 -88 c-43 -95 -43 -121 0 -116 26 3 37 23 166 307 76 168 135 311 133 318 -8 19 -36 28 -53 17 -8 -5 -47 -82 -87 -172 -41 -90 -77 -163 -81 -163 -4 0 -40 71 -79 158 -39 87 -75 164 -79 171 -11 16 -42 15 -57 -3z"/> <path d="M3085 799 c-90 -45 -138 -119 -137 -214 0 -80 24 -136 79 -185 52 -45 94 -60 174 -60 75 0 162 43 167 82 4 36 -19 41 -61 11 -45 -32 -140 -43 -183 -20 -43 23 -83 69 -90 105 l-7 33 186 -1 c103 -1 191 1 197 5 14 9 13 33 -6 96 -39 132 -200 208 -319 148z m175 -64 c45 -23 90 -86 90 -126 0 -5 -67 -9 -160 -9 -160 0 -160 0 -160 23 0 49 53 102 130 130 19 7 68 -2 100 -18z"/> <path d="M3460 805 c-11 -13 -3 -37 49 -153 108 -241 144 -307 166 -307 23 0 53 55 160 294 51 115 62 148 54 163 -6 12 -19 18 -32 16 -17 -2 -37 -37 -101 -176 -43 -95 -82 -170 -85 -166 -3 3 -40 80 -81 172 -59 130 -80 168 -96 170 -12 2 -27 -4 -34 -13z"/> <path d="M4065 796 c-88 -40 -135 -116 -135 -215 0 -60 26 -129 63 -170 62 -67 197 -91 287 -50 77 35 100 68 62 88 -14 8 -27 4 -54 -15 -48 -34 -131 -43 -183 -19 -40 20 -95 86 -95 116 0 17 14 19 193 21 l192 3 3 24 c2 13 -2 44 -9 68 -39 141 -191 211 -324 149z m185 -66 c20 -10 45 -35 58 -58 41 -73 42 -72 -139 -72 l-161 0 6 30 c7 39 33 73 69 95 62 37 100 38 167 5z"/> <path d="M4495 798 c-3 -13 -4 -122 -3 -243 l3 -220 30 0 30 0 5 151 c5 142 6 153 32 191 29 43 79 73 125 73 42 0 71 24 57 47 -25 40 -116 18 -175 -43 l-34 -35 -5 48 c-5 43 -8 48 -32 51 -22 3 -29 -2 -33 -20z"/> </g> </svg>