<svg width="152" height="13" viewBox="0 0 152 13" fill="none" xmlns="http://www.w3.org/2000/svg">
<path d="M148.051 3.50567L150.325 0.0078125H110.331C109.534 0.0078125 108.798 0.386334 108.398 0.998706L102.969 9.34995H106.91L104.636 12.8458H144.639C145.435 12.8458 146.172 12.4673 146.571 11.8549L151.999 3.50567H148.051ZM111.871 9.25086L113.516 6.71814H111.929L111.46 6.0047L109.342 9.25086H107.925L111.592 3.60475H113.009L111.69 5.63609H114.219L115.538 3.60475H116.955L113.288 9.25086H111.871ZM118.907 9.25086H115.571L114.89 8.2025L116.557 5.63807H117.827L117.196 4.65312L117.876 3.60674H122.583L121.875 4.68879H118.631L119.238 5.63807H120.601L119.903 6.72012H117.269L116.328 8.16881H119.615L118.907 9.25086ZM125.19 9.25086H123.772L124.788 7.68724L123.525 5.75499L121.244 9.25285H119.827L123.493 3.60674H127.493L128.173 4.6551L126.832 6.72012H125.564L126.2 7.69318L125.19 9.25086ZM127.475 9.25086L126.794 8.2025L129.78 3.60475H133.779L134.46 4.65312L131.474 9.25086H127.475ZM137.093 9.25086H133.757L133.076 8.2025L134.743 5.63807H136.013L135.382 4.65114L136.062 3.60475H140.769L140.061 4.68681H136.817L137.424 5.63609H138.787L138.086 6.71814H135.453L134.511 8.16683H137.798L137.093 9.25086ZM146.335 4.68681H142.393L142.085 5.16244L144.058 8.19853L143.375 9.25086H138.013L138.72 8.16881H142.621L140.668 5.16442L141.682 3.60674H147.042L146.335 4.68681Z" fill="white"/>
<path d="M126.738 4.6875H124.22L123.582 5.63678H126.122L126.738 4.6875Z" fill="white"/>
<path d="M128.23 8.16752H130.748L133.02 4.6875H130.502L128.23 8.16752Z" fill="white"/>
<path d="M82.2412 0.015625H80.1657C79.6882 0.015625 79.2463 0.241549 79.0053 0.610161L75.3676 6.20673C75.0485 6.69821 74.4593 6.99944 73.8211 6.99944H67.6929C67.1774 6.99944 66.856 6.50399 67.1127 6.10764L70.1076 1.50196C70.5361 0.84203 70.0005 0.015625 69.1413 0.015625H65.3943C64.8364 0.015625 64.3209 0.279203 64.0419 0.70925L59.9535 6.99944L57.1215 11.3574C56.693 12.0173 57.2286 12.8437 58.0878 12.8437H73.5153C74.4727 12.8437 75.3565 12.3899 75.8341 11.6547L78.8602 6.99944L82.8214 0.907429C83.0781 0.511072 82.7567 0.015625 82.2412 0.015625Z" fill="white"/>
<path d="M38.7344 3.00241L40.1069 0.891804C40.3635 0.495447 40.0421 0 39.5266 0H30.8744C30.475 0 30.1067 0.18827 29.9081 0.495447L28.5356 2.60605C28.279 3.00241 28.6004 3.49785 29.1159 3.49785H30.4058C30.7495 3.49785 30.9637 3.82881 30.7919 4.09239L29.3569 6.30208C29.0779 6.73213 28.5624 6.99571 28.0045 6.99571H26.5852C26.0272 6.99571 25.5117 7.25928 25.2328 7.68933L22.4633 11.9482C22.2066 12.3445 22.528 12.84 23.0435 12.84H31.4368C31.9947 12.84 32.5102 12.5764 32.7892 12.1464L35.5587 7.88751C35.8154 7.49115 35.494 6.99571 34.9785 6.99571H33.6863C33.3427 6.99571 33.1284 6.66475 33.3003 6.40117L34.8669 3.9933C35.0655 3.68612 35.4337 3.49785 35.8332 3.49785H37.7681C38.1675 3.49785 38.5358 3.3076 38.7344 3.00241Z" fill="white"/>
<path d="M26.8814 2.90332L28.1892 0.891804C28.4458 0.495447 28.1245 0 27.609 0H9.14857C8.35186 0 7.61541 0.378521 7.21594 0.990893L4.82805 4.66512C4.49107 5.18435 4.91286 5.83042 5.58682 5.83042H7.11329H20.173C20.5279 5.83042 20.751 6.17326 20.5725 6.44675L20.4074 6.70042C20.2868 6.88473 20.0659 6.99769 19.8271 6.99769H4.59819C3.80148 6.99769 3.06503 7.37621 2.66556 7.98858L0.0902125 11.9482C-0.16643 12.3445 0.154931 12.84 0.670447 12.84H19.1331C19.9298 12.84 20.6662 12.4615 21.0657 11.8491L24.7703 6.14948C25.1988 5.48955 24.6632 4.66314 23.804 4.66314H21.7285H8.67099C8.31616 4.66314 8.09299 4.32029 8.27152 4.04681L8.43667 3.79314C8.55718 3.60883 8.77811 3.49587 9.0169 3.49587H25.7254C26.2008 3.49785 26.6426 3.26995 26.8814 2.90332Z" fill="white"/>
<path d="M103.891 2.90332L105.199 0.891804C105.456 0.495447 105.135 0 104.619 0H86.1564C85.3597 0 84.6232 0.378521 84.2238 0.990893L81.8359 4.66512C81.4989 5.18435 81.9207 5.83042 82.5946 5.83042H84.1211H97.1808C97.5357 5.83042 97.7588 6.17326 97.5803 6.44675L97.4152 6.70042C97.2947 6.88473 97.0737 6.99769 96.8349 6.99769H81.606C80.8093 6.99769 80.0728 7.37621 79.6734 7.98858L77.098 11.9502C76.8414 12.3465 77.1627 12.842 77.6783 12.842H96.1409C96.9376 12.842 97.674 12.4635 98.0735 11.8511L101.778 6.15146C102.207 5.49153 101.671 4.66512 100.812 4.66512H98.7363H85.6766C85.3217 4.66512 85.0986 4.32228 85.2771 4.04879L85.4423 3.79512C85.5628 3.61081 85.7837 3.49785 86.0225 3.49785H102.731C103.211 3.49785 103.653 3.26995 103.891 2.90332Z" fill="white"/>
<path d="M60.3551 1.74992H58.6679C58.3243 1.74992 58.11 1.41896 58.2819 1.15538C58.6144 0.642099 58.1993 0 57.532 0H43.0328C42.4749 0 41.9594 0.263578 41.6804 0.693625L34.5547 11.6529C34.211 12.182 34.6395 12.842 35.3269 12.842H51.3994C52.1961 12.842 52.9325 12.4635 53.332 11.8511L54.5237 10.0179C54.7223 9.71075 55.0906 9.52248 55.49 9.52248H55.9475C56.5054 9.52248 57.021 9.2589 57.2999 8.82886L61.1295 2.93899C61.4731 2.40985 61.0424 1.74992 60.3551 1.74992ZM44.7401 6.10588L46.1125 3.99528C46.3112 3.6881 46.6794 3.49983 47.0789 3.49983H55.5972C56.1127 3.49983 56.434 3.99528 56.1774 4.39164L54.8049 6.50224C54.6063 6.80942 54.2381 6.99769 53.8386 6.99769H45.3203C44.8048 6.99769 44.4834 6.50224 44.7401 6.10588Z" fill="white"/>
</svg>
