<?xml version="1.0" standalone="no"?> <!DOCTYPE svg PUBLIC "-//W3C//DTD SVG 20010904//EN" "http://www.w3.org/TR/2001/REC-SVG-20010904/DTD/svg10.dtd"> <svg version="1.0" xmlns="http://www.w3.org/2000/svg" width="453.000000pt" height="91.000000pt" viewBox="0 0 453.000000 91.000000" preserveAspectRatio="xMidYMid meet"> <g transform="translate(0.000000,91.000000) scale(0.100000,-0.100000)" fill="#ffffff" stroke="none"> <path d="M606 849 c-174 -116 -359 -328 -468 -536 -47 -89 -128 -278 -128 -297 0 -3 19 3 43 13 96 41 385 123 550 156 112 22 320 45 411 45 l79 0 -65 67 c-149 152 -240 301 -303 496 -18 53 -34 100 -37 103 -3 2 -40 -19 -82 -47z m49 -135 c37 -127 112 -257 211 -363 l53 -58 -128 -12 c-197 -18 -364 -54 -560 -122 -46 -16 -86 -27 -88 -25 -6 6 64 173 99 236 49 86 120 179 200 258 74 72 162 140 185 141 6 1 19 -24 28 -55z"/> <path d="M3010 785 c-102 -32 -170 -128 -170 -241 0 -112 44 -189 134 -237 58 -30 175 -30 232 1 106 55 154 132 154 246 0 47 -7 85 -19 111 -49 108 -196 161 -331 120z m178 -33 c68 -31 102 -104 102 -222 0 -126 -51 -204 -143 -221 -129 -23 -226 73 -235 233 -8 130 31 198 125 224 53 14 101 10 151 -14z"/> <path d="M3637 789 c-91 -21 -176 -93 -196 -166 -26 -91 -8 -190 45 -252 51 -59 120 -85 224 -84 47 1 108 7 135 15 l50 14 3 70 c2 50 7 72 19 82 14 10 0 12 -78 11 -65 -1 -83 -3 -59 -8 56 -11 60 -17 60 -81 0 -73 -15 -84 -112 -82 -148 2 -235 102 -226 259 5 89 31 139 91 177 40 24 56 28 120 29 98 0 151 -23 155 -70 4 -44 22 -42 24 2 1 19 2 43 2 53 2 32 -166 52 -257 31z"/> <path d="M3988 788 c-40 -11 -51 -28 -19 -28 27 0 79 -64 139 -173 50 -89 52 -96 52 -169 0 -96 -5 -108 -41 -108 -16 0 -29 -4 -29 -8 0 -5 45 -9 100 -9 55 0 100 4 100 9 0 4 -13 8 -29 8 -37 0 -41 12 -41 112 0 95 20 141 124 279 63 83 64 84 38 87 -15 2 -28 -1 -30 -7 -8 -23 -140 -235 -148 -238 -5 -1 -33 42 -62 97 -50 95 -96 161 -110 159 -4 -1 -24 -6 -44 -11z"/> <path d="M1170 733 c0 -29 5 -53 10 -53 6 0 10 13 10 28 0 42 17 52 87 52 l63 0 -2 -222 -3 -223 -32 -3 c-18 -2 -33 -7 -33 -11 0 -4 47 -8 105 -8 58 0 105 4 105 8 0 4 -15 9 -32 11 l-33 3 -3 223 -2 222 63 0 c71 0 86 -10 88 -54 l1 -31 8 30 c4 17 8 42 9 56 l1 26 -205 0 -205 0 0 -54z"/> <path d="M1630 781 c0 -6 11 -11 25 -11 18 0 28 -7 35 -26 13 -34 13 -390 0 -415 -6 -11 -21 -19 -35 -19 -14 0 -25 -4 -25 -8 0 -4 45 -8 100 -9 55 0 100 4 100 8 0 4 -15 9 -32 11 l-33 3 -3 221 -2 221 39 7 c57 9 98 -3 126 -36 37 -44 34 -91 -9 -134 -32 -32 -55 -39 -114 -37 -17 1 -15 -1 35 -67 24 -30 66 -86 96 -125 52 -68 54 -70 100 -71 26 -1 47 2 47 7 0 5 -6 9 -14 9 -12 0 -193 228 -185 233 2 1 25 12 51 24 54 26 78 56 80 104 3 98 -25 113 -224 117 -109 3 -158 0 -158 -7z"/> <path d="M2140 779 c0 -5 10 -9 23 -9 45 0 47 -12 47 -230 0 -218 -2 -230 -47 -230 -13 0 -23 -4 -23 -8 0 -5 45 -9 100 -9 55 1 100 5 100 9 0 4 -10 8 -23 8 -45 0 -47 12 -47 230 0 218 2 230 47 230 13 0 23 4 23 9 0 5 -45 9 -100 9 -55 0 -100 -4 -100 -9z"/> <path d="M2410 778 c0 -4 11 -8 25 -8 41 0 46 -34 43 -248 -3 -172 -5 -195 -20 -203 -10 -6 -18 -13 -18 -17 0 -4 78 -8 174 -10 l173 -3 6 38 c9 53 9 83 -2 83 -5 0 -11 -18 -15 -39 -3 -22 -13 -41 -22 -45 -8 -3 -60 -6 -115 -6 l-99 0 2 223 3 222 33 3 c17 2 32 7 32 11 0 5 -45 8 -100 8 -55 0 -100 -4 -100 -9z"/> </g> </svg>